<svg xmlns="http://www.w3.org/2000/svg" version="1.1" xmlns:xlink="http://www.w3.org/1999/xlink" xmlns:svgjs="http://svgjs.com/svgjs" width="1440" height="560" preserveAspectRatio="none" viewBox="0 0 1440 560"><g mask="url(&quot;#SvgjsMask1016&quot;)" fill="none"><rect width="1440" height="560" x="0" y="0" fill="#0e2a47"></rect><path d="M322.85 212.26L387.8 249.76L387.8 324.76L322.85 362.26L257.89 324.76L257.89 249.76zM452.75 212.26L517.71 249.76L517.71 324.76L452.75 362.26L387.8 324.76L387.8 249.76zM517.71 549.76L582.66 587.26L582.66 662.26L517.71 699.76L452.75 662.26L452.75 587.26zM712.57 -12.74L777.52 24.76L777.52 99.76L712.57 137.26L647.61 99.76L647.61 24.76zM1556.97 99.76L1621.92 137.26L1621.92 212.26L1556.97 249.76L1492.01 212.26L1492.01 137.26zM1556.97 324.76L1621.92 362.26L1621.92 437.26L1556.97 474.76L1492.01 437.26L1492.01 362.26zM1556.97 549.76L1621.92 587.26L1621.92 662.26L1556.97 699.76L1492.01 662.26L1492.01 587.26z" stroke="rgba(239, 74, 96, 1)" stroke-width="2"></path><path d="M315.35 212.26 a7.5 7.5 0 1 0 15 0 a7.5 7.5 0 1 0 -15 0zM380.3 249.76 a7.5 7.5 0 1 0 15 0 a7.5 7.5 0 1 0 -15 0zM380.3 324.76 a7.5 7.5 0 1 0 15 0 a7.5 7.5 0 1 0 -15 0zM315.35 362.26 a7.5 7.5 0 1 0 15 0 a7.5 7.5 0 1 0 -15 0zM250.39 324.76 a7.5 7.5 0 1 0 15 0 a7.5 7.5 0 1 0 -15 0zM250.39 249.76 a7.5 7.5 0 1 0 15 0 a7.5 7.5 0 1 0 -15 0zM445.25 212.26 a7.5 7.5 0 1 0 15 0 a7.5 7.5 0 1 0 -15 0zM510.21 249.76 a7.5 7.5 0 1 0 15 0 a7.5 7.5 0 1 0 -15 0zM510.21 324.76 a7.5 7.5 0 1 0 15 0 a7.5 7.5 0 1 0 -15 0zM445.25 362.26 a7.5 7.5 0 1 0 15 0 a7.5 7.5 0 1 0 -15 0zM510.21 549.76 a7.5 7.5 0 1 0 15 0 a7.5 7.5 0 1 0 -15 0zM575.16 587.26 a7.5 7.5 0 1 0 15 0 a7.5 7.5 0 1 0 -15 0zM575.16 662.26 a7.5 7.5 0 1 0 15 0 a7.5 7.5 0 1 0 -15 0zM510.21 699.76 a7.5 7.5 0 1 0 15 0 a7.5 7.5 0 1 0 -15 0zM445.25 662.26 a7.5 7.5 0 1 0 15 0 a7.5 7.5 0 1 0 -15 0zM445.25 587.26 a7.5 7.5 0 1 0 15 0 a7.5 7.5 0 1 0 -15 0zM705.07 -12.74 a7.5 7.5 0 1 0 15 0 a7.5 7.5 0 1 0 -15 0zM770.02 24.76 a7.5 7.5 0 1 0 15 0 a7.5 7.5 0 1 0 -15 0zM770.02 99.76 a7.5 7.5 0 1 0 15 0 a7.5 7.5 0 1 0 -15 0zM705.07 137.26 a7.5 7.5 0 1 0 15 0 a7.5 7.5 0 1 0 -15 0zM640.11 99.76 a7.5 7.5 0 1 0 15 0 a7.5 7.5 0 1 0 -15 0zM640.11 24.76 a7.5 7.5 0 1 0 15 0 a7.5 7.5 0 1 0 -15 0zM1549.47 99.76 a7.5 7.5 0 1 0 15 0 a7.5 7.5 0 1 0 -15 0zM1614.42 137.26 a7.5 7.5 0 1 0 15 0 a7.5 7.5 0 1 0 -15 0zM1614.42 212.26 a7.5 7.5 0 1 0 15 0 a7.5 7.5 0 1 0 -15 0zM1549.47 249.76 a7.5 7.5 0 1 0 15 0 a7.5 7.5 0 1 0 -15 0zM1484.51 212.26 a7.5 7.5 0 1 0 15 0 a7.5 7.5 0 1 0 -15 0zM1484.51 137.26 a7.5 7.5 0 1 0 15 0 a7.5 7.5 0 1 0 -15 0zM1549.47 324.76 a7.5 7.5 0 1 0 15 0 a7.5 7.5 0 1 0 -15 0zM1614.42 362.26 a7.5 7.5 0 1 0 15 0 a7.5 7.5 0 1 0 -15 0zM1614.42 437.26 a7.5 7.5 0 1 0 15 0 a7.5 7.5 0 1 0 -15 0zM1549.47 474.76 a7.5 7.5 0 1 0 15 0 a7.5 7.5 0 1 0 -15 0zM1484.51 437.26 a7.5 7.5 0 1 0 15 0 a7.5 7.5 0 1 0 -15 0zM1484.51 362.26 a7.5 7.5 0 1 0 15 0 a7.5 7.5 0 1 0 -15 0zM1549.47 549.76 a7.5 7.5 0 1 0 15 0 a7.5 7.5 0 1 0 -15 0zM1614.42 587.26 a7.5 7.5 0 1 0 15 0 a7.5 7.5 0 1 0 -15 0zM1614.42 662.26 a7.5 7.5 0 1 0 15 0 a7.5 7.5 0 1 0 -15 0zM1549.47 699.76 a7.5 7.5 0 1 0 15 0 a7.5 7.5 0 1 0 -15 0zM1484.51 662.26 a7.5 7.5 0 1 0 15 0 a7.5 7.5 0 1 0 -15 0zM1484.51 587.26 a7.5 7.5 0 1 0 15 0 a7.5 7.5 0 1 0 -15 0z" fill="rgba(239, 74, 96, 1)"></path><path d="M22.51 -0.01L65.81 24.99L65.81 74.99L22.51 99.99L-20.79 74.99L-20.79 24.99zM65.81 74.99L109.12 99.99L109.12 149.99L65.81 174.99L22.51 149.99L22.51 99.99zM109.12 149.99L152.42 174.99L152.42 224.99L109.12 249.99L65.81 224.99L65.81 174.99zM152.42 374.99L195.72 399.99L195.72 449.99L152.42 474.99L109.12 449.99L109.12 399.99zM239.02 74.99L282.32 99.99L282.32 149.99L239.02 174.99L195.72 149.99L195.72 99.99zM455.54 449.99L498.84 474.99L498.84 524.99L455.54 549.99L412.23 524.99L412.23 474.99zM758.65 74.99L801.96 99.99L801.96 149.99L758.65 174.99L715.35 149.99L715.35 99.99zM845.26 74.99L888.56 99.99L888.56 149.99L845.26 174.99L801.96 149.99L801.96 99.99zM1191.68 74.99L1234.98 99.99L1234.98 149.99L1191.68 174.99L1148.38 149.99L1148.38 99.99zM1148.38 449.99L1191.68 474.99L1191.68 524.99L1148.38 549.99L1105.07 524.99L1105.07 474.99zM1234.98 -0.01L1278.28 24.99L1278.28 74.99L1234.98 99.99L1191.68 74.99L1191.68 24.99zM1321.59 299.99L1364.89 324.99L1364.89 374.99L1321.59 399.99L1278.28 374.99L1278.28 324.99zM1321.59 449.99L1364.89 474.99L1364.89 524.99L1321.59 549.99L1278.28 524.99L1278.28 474.99zM1451.49 224.99L1494.8 249.99L1494.8 299.99L1451.49 324.99L1408.19 299.99L1408.19 249.99z" stroke="url(#SvgjsLinearGradient1017)" stroke-width="2"></path></g><defs><mask id="SvgjsMask1016"><rect width="1440" height="560" fill="#ffffff"></rect></mask><linearGradient x1="220.03199999999998" y1="-220.02399999999997" x2="1219.9679999999998" y2="780.024" gradientUnits="userSpaceOnUse" id="SvgjsLinearGradient1017"><stop stop-color="#0e2a47" offset="0"></stop><stop stop-color="rgba(33, 103, 193, 1)" offset="1"></stop></linearGradient></defs></svg>