<svg xmlns="http://www.w3.org/2000/svg" version="1.1" xmlns:xlink="http://www.w3.org/1999/xlink" xmlns:svgjs="http://svgjs.com/svgjs" width="2000" height="3000" preserveAspectRatio="none" viewBox="0 0 2000 3000"><g mask="url(&quot;#SvgjsMask1042&quot;)" fill="none"><rect width="2000" height="3000" x="0" y="0" fill="rgba(21, 67, 96, 1)"></rect><path d="M0,1437.209C264.813,1435.994,410.665,1128.594,628.938,978.646C838.392,834.757,1123.17,790.124,1256.675,573.904C1395.12,349.684,1390.839,66.255,1353.347,-194.582C1315.854,-455.426,1256.621,-748.878,1044.135,-904.748C835.448,-1057.831,538.679,-917.201,286.848,-976.916C54.727,-1031.957,-135.262,-1307.392,-363.677,-1238.572C-592.4,-1169.659,-638.682,-865.004,-762.536,-660.741C-864.26,-492.976,-982.128,-338.803,-1025.296,-147.415C-1071.078,55.562,-1084.44,267.52,-1016.245,464.104C-944.164,671.891,-791.511,832.327,-632.659,984.436C-441.482,1167.498,-264.686,1438.424,0,1437.209" fill="#11364d"></path><path d="M2000 3893.956C2165.474 3881.303 2302.181 3777.163 2442.241 3688.14 2583.009 3598.667 2756.865 3528.782 2818.423 3373.761 2879.513 3219.919 2804.5860000000002 3049.974 2758.823 2890.898 2718.535 2750.854 2634.005 2637.363 2569.048 2506.917 2478.455 2324.9880000000003 2487.065 2055.93 2301.626 1972.757 2121.943 1892.166 1925.389 2054.881 1746.95 2138.19 1592.443 2210.326 1446.248 2294.547 1335.2089999999998 2423.955 1224.554 2552.916 1166.943 2710.708 1116.472 2872.968 1057.365 3062.991 935.181 3267.521 1016.289 3449.246 1097.3690000000001 3630.907 1330.778 3677.318 1512.049 3759.266 1668.979 3830.21 1828.28 3907.0860000000002 2000 3893.956" fill="#195073"></path></g><defs><mask id="SvgjsMask1042"><rect width="2000" height="3000" fill="#ffffff"></rect></mask></defs></svg>