<svg id="visual" viewBox="0 0 2000 3000" width="2000" height="3000" xmlns="http://www.w3.org/2000/svg" xmlns:xlink="http://www.w3.org/1999/xlink" version="1.1"><rect x="0" y="0" width="2000" height="3000" fill="#132259"></rect><path d="M0 141L25.7 150C51.3 159 102.7 177 154 190.2C205.3 203.3 256.7 211.7 308 196.5C359.3 181.3 410.7 142.7 461.8 129.7C513 116.7 564 129.3 615.2 151.5C666.3 173.7 717.7 205.3 769 224.8C820.3 244.3 871.7 251.7 923 246.3C974.3 241 1025.7 223 1077 194.7C1128.3 166.3 1179.7 127.7 1231 110.5C1282.3 93.3 1333.7 97.7 1384.8 125.7C1436 153.7 1487 205.3 1538.2 206.3C1589.3 207.3 1640.7 157.7 1692 134.8C1743.3 112 1794.7 116 1846 121.2C1897.3 126.3 1948.7 132.7 1974.3 135.8L2000 139L2000 0L1974.3 0C1948.7 0 1897.3 0 1846 0C1794.7 0 1743.3 0 1692 0C1640.7 0 1589.3 0 1538.2 0C1487 0 1436 0 1384.8 0C1333.7 0 1282.3 0 1231 0C1179.7 0 1128.3 0 1077 0C1025.7 0 974.3 0 923 0C871.7 0 820.3 0 769 0C717.7 0 666.3 0 615.2 0C564 0 513 0 461.8 0C410.7 0 359.3 0 308 0C256.7 0 205.3 0 154 0C102.7 0 51.3 0 25.7 0L0 0Z" fill="#e54d42"></path><path d="M0 142L25.7 135.5C51.3 129 102.7 116 154 113.2C205.3 110.3 256.7 117.7 308 128C359.3 138.3 410.7 151.7 461.8 166.7C513 181.7 564 198.3 615.2 181.3C666.3 164.3 717.7 113.7 769 108.8C820.3 104 871.7 145 923 172C974.3 199 1025.7 212 1077 194.7C1128.3 177.3 1179.7 129.7 1231 131.8C1282.3 134 1333.7 186 1384.8 203.3C1436 220.7 1487 203.3 1538.2 175.2C1589.3 147 1640.7 108 1692 112.2C1743.3 116.3 1794.7 163.7 1846 176C1897.3 188.3 1948.7 165.7 1974.3 154.3L2000 143L2000 0L1974.3 0C1948.7 0 1897.3 0 1846 0C1794.7 0 1743.3 0 1692 0C1640.7 0 1589.3 0 1538.2 0C1487 0 1436 0 1384.8 0C1333.7 0 1282.3 0 1231 0C1179.7 0 1128.3 0 1077 0C1025.7 0 974.3 0 923 0C871.7 0 820.3 0 769 0C717.7 0 666.3 0 615.2 0C564 0 513 0 461.8 0C410.7 0 359.3 0 308 0C256.7 0 205.3 0 154 0C102.7 0 51.3 0 25.7 0L0 0Z" fill="#e55a5d"></path><path d="M0 69L25.7 74.8C51.3 80.7 102.7 92.3 154 105.2C205.3 118 256.7 132 308 123.2C359.3 114.3 410.7 82.7 461.8 83.8C513 85 564 119 615.2 124.3C666.3 129.7 717.7 106.3 769 91.5C820.3 76.7 871.7 70.3 923 83.7C974.3 97 1025.7 130 1077 138.8C1128.3 147.7 1179.7 132.3 1231 128.8C1282.3 125.3 1333.7 133.7 1384.8 124.3C1436 115 1487 88 1538.2 93.5C1589.3 99 1640.7 137 1692 146.8C1743.3 156.7 1794.7 138.3 1846 135.5C1897.3 132.7 1948.7 145.3 1974.3 151.7L2000 158L2000 0L1974.3 0C1948.7 0 1897.3 0 1846 0C1794.7 0 1743.3 0 1692 0C1640.7 0 1589.3 0 1538.2 0C1487 0 1436 0 1384.8 0C1333.7 0 1282.3 0 1231 0C1179.7 0 1128.3 0 1077 0C1025.7 0 974.3 0 923 0C871.7 0 820.3 0 769 0C717.7 0 666.3 0 615.2 0C564 0 513 0 461.8 0C410.7 0 359.3 0 308 0C256.7 0 205.3 0 154 0C102.7 0 51.3 0 25.7 0L0 0Z" fill="#e16974"></path><path d="M0 140L25.7 144.8C51.3 149.7 102.7 159.3 154 148.5C205.3 137.7 256.7 106.3 308 92C359.3 77.7 410.7 80.3 461.8 93.2C513 106 564 129 615.2 137.2C666.3 145.3 717.7 138.7 769 129.7C820.3 120.7 871.7 109.3 923 114C974.3 118.7 1025.7 139.3 1077 136.5C1128.3 133.7 1179.7 107.3 1231 87.5C1282.3 67.7 1333.7 54.3 1384.8 59.3C1436 64.3 1487 87.7 1538.2 93.7C1589.3 99.7 1640.7 88.3 1692 93.7C1743.3 99 1794.7 121 1846 132C1897.3 143 1948.7 143 1974.3 143L2000 143L2000 0L1974.3 0C1948.7 0 1897.3 0 1846 0C1794.7 0 1743.3 0 1692 0C1640.7 0 1589.3 0 1538.2 0C1487 0 1436 0 1384.8 0C1333.7 0 1282.3 0 1231 0C1179.7 0 1128.3 0 1077 0C1025.7 0 974.3 0 923 0C871.7 0 820.3 0 769 0C717.7 0 666.3 0 615.2 0C564 0 513 0 461.8 0C410.7 0 359.3 0 308 0C256.7 0 205.3 0 154 0C102.7 0 51.3 0 25.7 0L0 0Z" fill="#da7888"></path><path d="M0 124L25.7 121.8C51.3 119.7 102.7 115.3 154 103.8C205.3 92.3 256.7 73.7 308 60.8C359.3 48 410.7 41 461.8 39.8C513 38.7 564 43.3 615.2 50C666.3 56.7 717.7 65.3 769 79C820.3 92.7 871.7 111.3 923 107.7C974.3 104 1025.7 78 1077 63.5C1128.3 49 1179.7 46 1231 53.7C1282.3 61.3 1333.7 79.7 1384.8 81.3C1436 83 1487 68 1538.2 73.5C1589.3 79 1640.7 105 1692 113.2C1743.3 121.3 1794.7 111.7 1846 95.7C1897.3 79.7 1948.7 57.3 1974.3 46.2L2000 35L2000 0L1974.3 0C1948.7 0 1897.3 0 1846 0C1794.7 0 1743.3 0 1692 0C1640.7 0 1589.3 0 1538.2 0C1487 0 1436 0 1384.8 0C1333.7 0 1282.3 0 1231 0C1179.7 0 1128.3 0 1077 0C1025.7 0 974.3 0 923 0C871.7 0 820.3 0 769 0C717.7 0 666.3 0 615.2 0C564 0 513 0 461.8 0C410.7 0 359.3 0 308 0C256.7 0 205.3 0 154 0C102.7 0 51.3 0 25.7 0L0 0Z" fill="#d18798"></path><path d="M0 63L25.7 58.5C51.3 54 102.7 45 154 48C205.3 51 256.7 66 308 76.7C359.3 87.3 410.7 93.7 461.8 88.5C513 83.3 564 66.7 615.2 58.5C666.3 50.3 717.7 50.7 769 47.7C820.3 44.7 871.7 38.3 923 42C974.3 45.7 1025.7 59.3 1077 67.8C1128.3 76.3 1179.7 79.7 1231 81C1282.3 82.3 1333.7 81.7 1384.8 72.2C1436 62.7 1487 44.3 1538.2 40.5C1589.3 36.7 1640.7 47.3 1692 58.7C1743.3 70 1794.7 82 1846 80.7C1897.3 79.3 1948.7 64.7 1974.3 57.3L2000 50L2000 0L1974.3 0C1948.7 0 1897.3 0 1846 0C1794.7 0 1743.3 0 1692 0C1640.7 0 1589.3 0 1538.2 0C1487 0 1436 0 1384.8 0C1333.7 0 1282.3 0 1231 0C1179.7 0 1128.3 0 1077 0C1025.7 0 974.3 0 923 0C871.7 0 820.3 0 769 0C717.7 0 666.3 0 615.2 0C564 0 513 0 461.8 0C410.7 0 359.3 0 308 0C256.7 0 205.3 0 154 0C102.7 0 51.3 0 25.7 0L0 0Z" fill="#c695a4"></path><path d="M0 57L25.7 52C51.3 47 102.7 37 154 36.2C205.3 35.3 256.7 43.7 308 49.5C359.3 55.3 410.7 58.7 461.8 56C513 53.3 564 44.7 615.2 36.5C666.3 28.3 717.7 20.7 769 24.8C820.3 29 871.7 45 923 52.8C974.3 60.7 1025.7 60.3 1077 57C1128.3 53.7 1179.7 47.3 1231 46.5C1282.3 45.7 1333.7 50.3 1384.8 44.7C1436 39 1487 23 1538.2 15C1589.3 7 1640.7 7 1692 9.5C1743.3 12 1794.7 17 1846 25.8C1897.3 34.7 1948.7 47.3 1974.3 53.7L2000 60L2000 0L1974.3 0C1948.7 0 1897.3 0 1846 0C1794.7 0 1743.3 0 1692 0C1640.7 0 1589.3 0 1538.2 0C1487 0 1436 0 1384.8 0C1333.7 0 1282.3 0 1231 0C1179.7 0 1128.3 0 1077 0C1025.7 0 974.3 0 923 0C871.7 0 820.3 0 769 0C717.7 0 666.3 0 615.2 0C564 0 513 0 461.8 0C410.7 0 359.3 0 308 0C256.7 0 205.3 0 154 0C102.7 0 51.3 0 25.7 0L0 0Z" fill="#bba2ac"></path></svg>