<svg id="visual" viewBox="0 0 2000 6000" width="2000" height="6000" xmlns="http://www.w3.org/2000/svg" xmlns:xlink="http://www.w3.org/1999/xlink" version="1.1"><rect x="0" y="0" width="2000" height="6000" fill="#162256"></rect><path d="M0 281L47.7 286.5C95.3 292 190.7 303 285.8 295.2C381 287.3 476 260.7 571.2 262.7C666.3 264.7 761.7 295.3 857 303.5C952.3 311.7 1047.7 297.3 1143 294.3C1238.3 291.3 1333.7 299.7 1428.8 305.8C1524 312 1619 316 1714.2 306.8C1809.3 297.7 1904.7 275.3 1952.3 264.2L2000 253L2000 0L1952.3 0C1904.7 0 1809.3 0 1714.2 0C1619 0 1524 0 1428.8 0C1333.7 0 1238.3 0 1143 0C1047.7 0 952.3 0 857 0C761.7 0 666.3 0 571.2 0C476 0 381 0 285.8 0C190.7 0 95.3 0 47.7 0L0 0Z" fill="#c84f4f"></path></svg>